<?xml version="1.0" standalone="no"?>
<!DOCTYPE svg PUBLIC "-//W3C//DTD SVG 20010904//EN"
 "http://www.w3.org/TR/2001/REC-SVG-20010904/DTD/svg10.dtd">
<svg version="1.0" xmlns="http://www.w3.org/2000/svg"
 width="500.000000pt" height="176.000000pt" viewBox="0 0 500.000000 176.000000"
 preserveAspectRatio="xMidYMid meet">

<g transform="translate(0.000000,176.000000) scale(0.100000,-0.100000)"
fill="#000000" stroke="none">
<path d="M3041 1650 c-148 -70 -286 -277 -352 -528 -29 -109 -37 -332 -15
-426 34 -144 107 -250 205 -298 101 -49 244 -30 344 46 60 46 149 155 192 237
27 51 40 68 48 60 18 -18 72 -13 91 8 44 48 24 141 -30 141 -43 0 -63 -18 -78
-71 -35 -116 -171 -313 -258 -372 -96 -65 -183 -71 -285 -22 -133 65 -206 227
-206 455 0 131 18 227 68 368 84 235 249 412 384 412 56 0 121 -37 151 -85 21
-34 50 -47 50 -24 0 26 -44 81 -84 104 -62 37 -141 35 -225 -5z m499 -806 c9
-43 -7 -92 -31 -99 -40 -13 -45 25 -13 103 16 40 36 38 44 -4z"/>
<path d="M863 1609 c-90 -9 -183 -38 -298 -94 -115 -57 -202 -123 -304 -231
-144 -152 -216 -354 -141 -394 30 -16 45 -2 23 22 -66 73 74 315 266 462 231
176 483 253 652 199 41 -13 69 -32 115 -78 79 -79 105 -143 112 -276 9 -207
-65 -407 -221 -591 -33 -40 -51 -51 -96 -64 -48 -13 -171 -53 -216 -70 -12 -5
-13 40 -8 293 6 311 0 383 -33 383 -13 0 -14 -6 -7 -32 8 -33 6 -630 -2 -658
-3 -8 -34 -30 -69 -48 -86 -45 -148 -98 -144 -126 4 -30 51 -32 128 -6 34 11
71 18 82 15 14 -5 21 -1 24 12 3 11 35 37 72 58 103 58 190 126 273 212 117
121 182 230 231 383 20 64 23 95 23 215 -1 166 -18 222 -91 304 -82 91 -197
125 -371 110z m77 -1100 c-41 -36 -179 -119 -197 -119 -15 0 -17 34 -3 59 7
15 77 46 190 84 39 14 42 4 10 -24z m-240 -110 c0 -36 -3 -41 -36 -55 -48 -20
-90 -28 -110 -20 -15 6 -14 9 7 32 23 25 115 84 132 84 4 0 7 -18 7 -41z"/>
<path d="M4305 1138 c-2 -18 -6 -53 -7 -78 -3 -44 -4 -45 -43 -51 l-40 -6 44
-2 c43 -1 43 -1 37 -32 -3 -17 -6 -60 -6 -95 l0 -64 -52 -30 c-83 -47 -158
-36 -158 24 0 31 7 35 40 23 22 -9 33 -7 54 6 52 34 15 84 -51 71 -77 -15
-107 -95 -59 -151 34 -39 94 -37 170 5 65 37 66 37 66 15 0 -37 22 -93 39
-103 17 -9 18 -7 5 28 -8 23 -13 86 -14 170 l0 132 35 0 35 0 0 -100 c0 -117
14 -191 42 -222 l20 -23 -8 25 c-4 14 -9 91 -11 173 l-4 147 50 0 c30 0 51 4
51 11 0 6 -18 9 -47 8 l-48 -3 -3 77 c-4 113 -28 100 -34 -18 l-3 -50 -39 -3
-39 -3 6 45 c11 80 -15 149 -28 74z m-145 -272 c0 -17 -34 -31 -50 -21 -16 10
8 35 31 35 11 0 19 -6 19 -14z"/>
<path d="M1353 985 c-8 -22 6 -33 17 -15 13 20 12 30 0 30 -6 0 -13 -7 -17
-15z"/>
<path d="M3993 985 c-8 -22 6 -33 17 -15 13 20 12 30 0 30 -6 0 -13 -7 -17
-15z"/>
<path d="M1905 879 c-41 -37 -45 -39 -45 -20 0 31 -32 23 -40 -9 -12 -50 -155
-103 -208 -77 -24 11 -27 18 -27 61 0 46 -15 70 -29 48 -3 -5 -26 -7 -51 -5
-41 5 -47 3 -80 -30 -28 -28 -35 -43 -35 -74 0 -21 5 -44 12 -51 23 -23 66
-13 106 22 37 34 38 34 51 14 11 -18 20 -20 74 -16 59 4 110 23 170 62 l27 18
0 -52 c0 -42 3 -51 16 -48 10 2 24 24 34 55 20 62 47 106 62 101 6 -2 17 -23
24 -47 29 -100 102 -120 207 -57 48 29 57 32 57 17 0 -21 32 -57 60 -66 30
-10 119 20 168 55 23 18 42 34 42 36 0 2 -31 -12 -68 -31 -103 -55 -162 -46
-162 22 0 21 3 23 38 17 29 -4 42 -1 60 16 29 27 28 44 -4 59 -39 17 -100 -2
-123 -40 -28 -45 -87 -82 -142 -87 -41 -4 -49 -1 -62 19 -8 13 -18 41 -21 61
-7 40 -29 68 -52 68 -8 0 -35 -19 -59 -41z m443 -11 c-8 -22 -36 -34 -50 -20
-10 10 -10 15 2 22 21 14 52 12 48 -2z m-814 -16 c13 -21 -51 -112 -80 -112
-33 0 -29 65 6 100 20 20 64 27 74 12z"/>
<path d="M4575 902 c-74 -24 -98 -95 -51 -149 20 -23 32 -28 68 -27 47 1 134
41 165 77 13 14 -2 9 -48 -16 -97 -54 -169 -46 -169 17 0 31 7 35 40 23 22 -9
33 -7 54 6 34 22 34 55 0 67 -28 11 -30 11 -59 2z m45 -36 c0 -17 -34 -31 -50
-21 -16 10 8 35 31 35 11 0 19 -6 19 -14z"/>
<path d="M1336 892 c-9 -15 -10 -134 -2 -159 11 -35 24 -27 31 20 13 87 -6
176 -29 139z"/>
<path d="M3594 875 c-9 -38 2 -55 36 -55 l30 0 0 -60 c0 -66 10 -77 54 -66 27
7 59 46 70 86 7 23 6 22 -12 -5 -25 -40 -60 -70 -70 -61 -4 4 -7 33 -7 64 0
56 0 57 -30 58 -27 0 -30 3 -27 32 2 26 -2 32 -18 32 -13 0 -22 -9 -26 -25z"/>
<path d="M3777 893 c-12 -11 -8 -61 6 -70 6 -4 23 -6 36 -4 23 3 24 1 17 -47
-8 -62 -1 -82 31 -82 36 0 61 16 80 53 l16 32 9 -32 c12 -45 26 -41 33 10 10
68 2 142 -15 142 -10 0 -17 -15 -21 -46 -8 -53 -28 -96 -57 -123 -31 -27 -45
-11 -39 43 7 58 -2 75 -38 69 -26 -5 -27 -4 -20 28 5 29 3 34 -13 34 -10 0
-22 -3 -25 -7z"/>
<path d="M941 269 c-12 -29 -20 -54 -18 -56 2 -2 14 20 26 48 12 29 20 54 18
56 -2 2 -14 -20 -26 -48z"/>
<path d="M1011 269 c-12 -29 -20 -54 -18 -56 2 -2 14 20 26 48 12 29 20 54 18
56 -2 2 -14 -20 -26 -48z"/>
<path d="M1110 265 l0 -58 45 5 c53 6 75 22 75 53 0 31 -22 47 -75 53 l-45 5
0 -58z m91 19 c19 -23 -1 -48 -40 -52 -30 -3 -31 -2 -31 32 0 33 2 36 29 36
16 0 34 -7 42 -16z"/>
<path d="M1260 265 c0 -30 5 -55 10 -55 6 0 10 25 10 55 0 30 -4 55 -10 55 -5
0 -10 -25 -10 -55z"/>
<path d="M1332 304 c-40 -27 -26 -80 23 -90 40 -7 75 10 75 36 0 16 -6 20 -32
19 -25 -1 -27 -3 -10 -6 31 -6 22 -27 -13 -31 -36 -5 -59 22 -44 49 7 14 21
19 52 19 31 0 38 3 27 10 -22 14 -53 12 -78 -6z"/>
<path d="M1460 265 c0 -30 5 -55 10 -55 6 0 10 25 10 55 0 30 -4 55 -10 55 -5
0 -10 -25 -10 -55z"/>
<path d="M1510 310 c0 -5 9 -10 20 -10 17 0 20 -7 20 -45 0 -25 5 -45 10 -45
6 0 10 20 10 45 0 41 2 45 25 45 14 0 25 5 25 10 0 6 -25 10 -55 10 -30 0 -55
-4 -55 -10z"/>
<path d="M1657 265 c-15 -30 -22 -55 -17 -55 6 0 13 7 16 15 9 22 70 20 83 -2
5 -10 12 -15 16 -11 10 9 -43 108 -58 108 -7 0 -25 -25 -40 -55z m63 -7 c0 -4
-11 -8 -25 -8 -23 0 -24 2 -13 26 11 24 13 25 25 8 7 -10 13 -21 13 -26z"/>
<path d="M1785 266 l0 -53 48 -2 c26 0 47 4 47 9 0 6 -19 10 -41 10 l-42 0 5
45 c4 30 2 45 -6 45 -7 0 -11 -21 -11 -54z"/>
<path d="M1973 305 c-29 -21 -30 -59 -1 -79 25 -18 74 -21 83 -6 4 6 -6 10
-24 10 -44 0 -61 10 -61 36 0 26 34 41 71 31 13 -3 19 -1 16 6 -6 19 -60 19
-84 2z"/>
<path d="M2100 300 c-11 -11 -20 -27 -20 -35 0 -23 37 -55 63 -55 33 0 67 28
67 55 0 49 -73 72 -110 35z m88 -34 c3 -20 -2 -28 -20 -35 -48 -18 -87 29 -49
60 29 24 65 11 69 -25z"/>
<path d="M2240 265 c0 -65 17 -74 22 -12 l3 42 23 -44 24 -44 26 44 27 44 3
-42 c5 -62 22 -53 22 12 0 69 -20 74 -51 13 l-21 -42 -19 25 c-10 13 -21 32
-25 42 -3 9 -12 17 -20 17 -10 0 -14 -14 -14 -55z"/>
<path d="M2420 265 c0 -65 17 -74 22 -12 l3 42 23 -44 24 -44 26 44 27 44 3
-42 c5 -62 22 -53 22 12 0 69 -20 74 -51 13 l-21 -42 -19 25 c-10 13 -21 32
-25 42 -3 9 -12 17 -20 17 -10 0 -14 -14 -14 -55z"/>
<path d="M2600 265 l0 -55 55 0 c30 0 55 5 55 10 0 6 -20 10 -45 10 -58 0 -64
27 -7 33 l37 4 -37 1 c-26 1 -38 7 -38 17 0 11 11 15 40 15 22 0 40 5 40 10 0
6 -22 10 -50 10 l-50 0 0 -55z"/>
<path d="M2740 265 c0 -30 5 -55 10 -55 6 0 10 11 10 25 0 16 6 25 15 25 9 0
26 -11 39 -25 23 -25 46 -33 46 -17 0 5 -11 15 -25 22 -13 7 -22 17 -19 22 3
4 -9 8 -25 8 -21 0 -31 5 -31 15 0 10 11 15 35 15 26 0 35 -4 35 -17 0 -14 2
-15 13 -4 18 18 -17 41 -65 41 l-38 0 0 -55z"/>
<path d="M2903 305 c-29 -21 -30 -59 -1 -79 25 -18 74 -21 83 -6 4 6 -6 10
-24 10 -44 0 -61 10 -61 36 0 26 34 41 71 31 13 -3 19 -1 16 6 -6 19 -60 19
-84 2z"/>
<path d="M3020 265 l0 -55 49 0 c28 0 53 5 56 10 4 6 -12 10 -39 10 -59 0 -66
27 -8 33 l37 4 -37 1 c-26 1 -38 7 -38 17 0 11 11 15 40 15 22 0 40 5 40 10 0
6 -22 10 -50 10 l-50 0 0 -55z"/>
<path d="M3200 265 l0 -58 46 6 c54 6 67 16 67 52 0 36 -13 46 -67 52 l-46 6
0 -58z m91 19 c19 -23 -1 -48 -40 -52 -30 -3 -31 -2 -31 32 0 33 2 36 29 36
16 0 34 -7 42 -16z"/>
<path d="M3345 265 l0 -55 53 0 c28 0 52 5 52 10 0 6 -21 10 -46 10 -55 0 -57
23 -3 29 l34 4 -34 6 c-54 9 -51 31 3 31 25 0 46 5 46 10 0 6 -24 10 -52 10
l-53 0 0 -55z"/>
<path d="M3470 315 c0 -16 54 -105 64 -105 6 0 24 25 39 55 15 30 22 55 17 55
-5 0 -20 -21 -34 -47 l-24 -48 -23 48 c-19 40 -39 61 -39 42z"/>
<path d="M3620 265 l0 -55 55 0 c30 0 55 5 55 10 0 6 -20 10 -45 10 -58 0 -64
27 -7 33 l37 4 -37 1 c-26 1 -38 7 -38 17 0 11 11 15 40 15 22 0 40 5 40 10 0
6 -22 10 -50 10 l-50 0 0 -55z"/>
<path d="M3760 267 l0 -54 50 -2 c28 -1 50 3 50 9 0 5 -18 10 -40 10 l-40 0 0
45 c0 25 -4 45 -10 45 -5 0 -10 -24 -10 -53z"/>
<path d="M3896 304 c-36 -36 -9 -94 44 -94 35 0 60 23 60 55 0 32 -25 55 -60
55 -16 0 -36 -7 -44 -16z m74 -14 c22 -22 18 -45 -11 -61 -22 -11 -53 2 -63
26 -6 16 25 55 44 55 6 0 19 -9 30 -20z"/>
<path d="M4030 265 c0 -30 5 -55 10 -55 9 0 15 45 11 78 -2 9 9 12 36 10 47
-4 53 -30 8 -38 -21 -4 -26 -8 -17 -14 18 -11 59 1 66 19 13 36 -15 55 -81 55
l-33 0 0 -55z"/>
<path d="M4170 265 l0 -55 55 0 c30 0 55 5 55 10 0 6 -20 10 -45 10 -58 0 -64
27 -7 33 l37 4 -37 1 c-26 1 -38 7 -38 17 0 11 11 15 40 15 22 0 40 5 40 10 0
6 -22 10 -50 10 l-50 0 0 -55z"/>
<path d="M4310 265 c0 -30 5 -55 10 -55 6 0 10 11 10 25 0 16 6 25 15 25 9 0
26 -11 39 -25 23 -25 46 -33 46 -17 0 5 -11 15 -25 22 -13 7 -22 17 -19 22 3
4 -9 8 -25 8 -21 0 -31 5 -31 15 0 10 11 15 35 15 26 0 35 -4 35 -17 0 -14 2
-15 13 -4 18 18 -17 41 -65 41 l-38 0 0 -55z"/>
</g>
</svg>
